<svg width="24" height="24" viewBox="0 0 24 24" fill="none" xmlns="http://www.w3.org/2000/svg">
<path d="M18.4137 4.28125C17.6031 4.28125 17.0627 4.82106 17.0627 5.63076C17.0627 6.44047 17.7382 6.98028 18.4137 6.98028C19.2242 6.98028 19.7646 6.44047 19.7646 5.63076C19.7646 4.95601 19.0891 4.28125 18.4137 4.28125Z" fill="white"/>
<path d="M12.3344 6.03516C9.22727 6.03516 6.66052 8.59923 6.66052 11.7031C6.66052 14.807 9.22727 17.3711 12.3344 17.3711C15.4415 17.3711 18.0083 14.807 18.0083 11.7031C18.0083 8.59923 15.4415 6.03516 12.3344 6.03516ZM12.3344 15.3468C10.308 15.3468 8.6869 13.7274 8.6869 11.7031C8.6869 9.67884 10.308 8.05943 12.3344 8.05943C14.3608 8.05943 15.9819 9.67884 15.9819 11.7031C15.9819 13.7274 14.3608 15.3468 12.3344 15.3468Z" fill="white"/>
<path d="M16.7923 23.3089H7.60601C3.82343 23.3089 0.716309 20.205 0.716309 16.4264V7.2497C0.716309 3.47107 3.82343 0.367188 7.60601 0.367188H16.7923C20.5748 0.367188 23.682 3.47107 23.682 7.2497V16.2914C23.8171 20.205 20.7099 23.3089 16.7923 23.3089ZM7.60601 2.39146C4.90417 2.39146 2.87778 4.55068 2.87778 7.11475V16.2914C2.87778 18.9905 5.03926 21.0147 7.60601 21.0147H16.7923C19.4941 21.0147 21.5205 18.8555 21.5205 16.2914V7.11475C21.5205 4.41573 19.359 2.39146 16.7923 2.39146H7.60601V2.39146Z" fill="white"/>
</svg>
