<svg width="19" height="19" viewBox="0 0 19 19" fill="none" xmlns="http://www.w3.org/2000/svg">
<path d="M0.270184 6.07281H4.05276V18.3534H0.270184V6.07281ZM2.16147 0C3.3773 0 4.32294 0.944657 4.32294 2.15922C4.32294 3.37378 3.3773 4.31844 2.16147 4.31844C0.945643 4.31844 0 3.37378 0 2.15922C0 0.944657 0.945643 0 2.16147 0Z" fill="white"/>
<path d="M6.48462 6.07283H10.1321V7.69224C10.6725 6.74758 11.8883 5.66797 13.7796 5.66797C17.6973 5.66797 18.3727 8.23205 18.3727 11.4709V18.2184H14.5901V12.2806C14.5901 10.7961 14.5901 9.04175 12.5638 9.04175C10.5374 9.04175 10.2672 10.5262 10.2672 12.1456V18.2184H6.48462V6.07283V6.07283Z" fill="white"/>
</svg>
