<svg width="33" height="27" viewBox="0 0 33 27" fill="none" xmlns="http://www.w3.org/2000/svg">
<path d="M16.4982 9.65034C13.9384 9.64941 11.4837 8.6326 9.67294 6.82322C7.86223 5.01383 6.84363 2.55979 6.84082 0H0C0 4.37607 1.73839 8.57291 4.83274 11.6673C7.92709 14.7616 12.1239 16.5 16.5 16.5C20.8761 16.5 25.0729 14.7616 28.1673 11.6673C31.2616 8.57291 33 4.37607 33 0H26.1503C26.1475 2.55887 25.1297 5.01211 23.3201 6.82135C21.5105 8.63058 19.0571 9.648 16.4982 9.65034Z" fill="white"/>
<path d="M29.5732 19.709H3.42285V26.5586H29.5732V19.709Z" fill="white"/>
</svg>
