<svg width="34" height="27" viewBox="0 0 34 27" fill="none" xmlns="http://www.w3.org/2000/svg">
<path d="M16.7678 9.80805C14.1662 9.8071 11.6713 8.77368 9.83101 6.93472C7.99071 5.09577 6.95547 2.60162 6.95261 0H0C0 4.44758 1.7668 8.71301 4.91171 11.8579C8.05663 15.0028 12.3221 16.7696 16.7696 16.7696C21.2172 16.7696 25.4826 15.0028 28.6276 11.8579C31.7725 8.71301 33.5393 4.44758 33.5393 0H26.5777C26.5748 2.60069 25.5403 5.09402 23.7012 6.93282C21.8621 8.77162 19.3685 9.80567 16.7678 9.80805V9.80805Z" fill="white"/>
<path d="M30.0567 19.7695H3.479V26.7311H30.0567V19.7695Z" fill="white"/>
</svg>
