<svg width="143" height="27" viewBox="0 0 143 27" fill="none" xmlns="http://www.w3.org/2000/svg">
<path d="M59.8917 4.68833H52.055L45.5446 13.968V0H38.8777V26.9907H45.5446V17.7506L52.055 26.9907H60.0875L51.1188 16.1136L59.8917 4.68833Z" fill="white"/>
<path d="M77.8166 6.03457C76.1143 5.13848 74.1843 4.69043 72.0267 4.69043C69.8692 4.69043 67.9326 5.13848 66.2171 6.03457C64.5241 6.90925 63.1219 8.25716 62.1811 9.91426C61.2059 11.6046 60.7183 13.5813 60.7183 15.8443C60.7183 18.1073 61.2059 20.084 62.1811 21.7744C63.1217 23.4316 64.524 24.7795 66.2171 25.654C67.9326 26.5501 69.8692 26.9988 72.0267 27C74.1843 27.0012 76.1143 26.5525 77.8166 25.654C79.5031 24.7715 80.898 23.4197 81.8329 21.7618C82.808 20.0726 83.2956 18.0959 83.2956 15.8317C83.2956 13.5675 82.808 11.5908 81.8329 9.90168C80.894 8.25317 79.4995 6.91047 77.8166 6.03457ZM75.2236 19.8174C74.8183 20.259 74.3235 20.609 73.7723 20.8442C73.221 21.0794 72.6259 21.1943 72.0267 21.1814C71.4248 21.1932 70.8271 21.0779 70.2728 20.8428C69.7185 20.6078 69.2201 20.2584 68.8101 19.8174C67.944 18.9082 67.5109 17.5796 67.5109 15.8317C67.5109 14.0839 67.9464 12.7517 68.8173 11.8352C69.2244 11.3893 69.7218 11.0352 70.2764 10.7966C70.8311 10.558 71.4302 10.4404 72.0339 10.4516C72.6349 10.4393 73.2314 10.5566 73.783 10.7953C74.3346 11.0341 74.8284 11.3887 75.2308 11.8352C76.0885 12.7577 76.5174 14.0899 76.5174 15.8317C76.5174 17.5736 76.0861 18.9022 75.2236 19.8174Z" fill="white"/>
<path d="M109.594 20.1649L105.422 4.6875H98.3256L94.2698 20.1254L91.3856 4.6875H84.7188L90.2931 26.9899H97.7416L101.718 12.4073L105.655 26.9899H113.102L118.678 4.6875H112.479L109.594 20.1649Z" fill="white"/>
<path d="M136.301 4.6905V8.89903C135.752 7.6265 134.827 6.55196 133.651 5.819C132.454 5.06666 131.024 4.6905 129.361 4.6905C127.66 4.66431 125.987 5.13181 124.545 6.03644C123.128 6.93613 122.01 8.22456 121.192 9.90175C120.374 11.5789 119.965 13.5556 119.965 15.8318C119.965 18.0924 120.374 20.0691 121.192 21.7618C122.01 23.4546 123.128 24.7478 124.545 25.6415C125.987 26.5462 127.66 27.0137 129.361 26.9875C131.024 26.9875 132.454 26.6107 133.651 25.8572C134.827 25.1245 135.752 24.0499 136.301 22.7771V26.9911H142.93V4.6905H136.301ZM134.957 19.7007C134.06 20.6591 132.91 21.1383 131.507 21.1383C130.077 21.1383 128.926 20.6705 128.057 19.7348C127.187 18.7992 126.751 17.4982 126.749 15.8318C126.749 14.169 127.184 12.8692 128.055 11.9323C128.926 10.9955 130.076 10.5277 131.505 10.5289C132.908 10.5289 134.058 11.0033 134.955 11.9521C135.853 12.9009 136.301 14.1941 136.301 15.8318C136.301 17.4503 135.853 18.7399 134.957 19.7007Z" fill="white"/>
<path d="M16.7677 9.80794C14.1661 9.80699 11.6712 8.77358 9.83091 6.93465C7.99063 5.09571 6.95539 2.6016 6.95253 0H0C0 4.44754 1.76678 8.71291 4.91166 11.8578C8.05654 15.0027 12.3219 16.7695 16.7695 16.7695C21.217 16.7695 25.4824 15.0027 28.6273 11.8578C31.7721 8.71291 33.5389 4.44754 33.5389 0H26.5774C26.5745 2.60066 25.54 5.09397 23.7009 6.93274C21.8618 8.77152 19.3683 9.80556 16.7677 9.80794Z" fill="white"/>
<path d="M30.0564 20.0312H3.479V26.9928H30.0564V20.0312Z" fill="white"/>
</svg>
