<svg width="23" height="24" viewBox="0 0 23 24" fill="none" xmlns="http://www.w3.org/2000/svg">
<path d="M0 23.0115L1.62604 16.9202C0.677521 15.2959 0.135511 13.4008 0.135511 11.3704C0.135511 5.14374 5.28462 0 11.5178 0C17.7509 0 22.9 5.14374 22.9 11.3704C22.9 17.597 17.7509 22.7408 11.5178 22.7408C9.62071 22.7408 7.72367 22.1993 6.09763 21.3871L0 23.0115ZM6.50415 19.086L6.91066 19.3567C8.40119 20.1689 10.0272 20.7103 11.6533 20.7103C16.8024 20.7103 20.8675 16.5141 20.8675 11.5057C20.8675 6.362 16.6669 2.30115 11.6533 2.30115C6.50415 2.30115 2.43906 6.49736 2.43906 11.5057C2.43906 13.1301 2.84557 14.8898 3.79409 16.2434L4.06509 16.6495L3.11657 20.0335L6.50415 19.086Z" fill="white"/>
<path fill-rule="evenodd" clip-rule="evenodd" d="M15.8534 12.8595C15.4469 12.5888 14.7693 12.3181 14.2273 12.4534C13.8208 12.5888 13.5498 13.2656 13.2788 13.6717C13.1433 13.807 13.0078 13.807 12.7368 13.807C11.1108 13.1302 9.89124 12.0473 9.07822 10.6937C8.94272 10.423 8.94272 10.2876 9.07822 10.0169C9.34923 9.74619 9.62023 9.3401 9.75574 8.93402C9.89124 8.52793 9.62023 7.98648 9.48472 7.71576C9.21372 7.17431 9.07822 6.49751 8.53621 6.22678C8.1297 5.95606 7.45219 6.09142 7.18118 6.49751C6.50367 7.03896 6.23267 7.85113 6.23267 8.79866C6.23267 9.06938 6.23266 9.34011 6.36817 9.47547C6.50367 10.0169 6.77467 10.5584 7.04568 11.0998C7.31669 11.5059 7.45219 11.7766 7.72319 12.1827C8.53621 13.401 9.62023 14.3485 10.8398 15.0253C11.5173 15.4314 12.0593 15.7021 12.7368 15.9728C13.5498 16.2436 14.2273 16.5143 15.0403 16.3789C15.8534 16.2436 16.8019 15.7021 17.0729 14.8899C17.2084 14.6192 17.2084 14.3485 17.2084 14.0778C17.0729 13.5363 16.2599 13.1302 15.8534 12.8595Z" fill="white"/>
</svg>
